<?xml version="1.0" standalone="no"?><!DOCTYPE svg PUBLIC "-//W3C//DTD SVG 1.1//EN" "http://www.w3.org/Graphics/SVG/1.1/DTD/svg11.dtd"><svg class="icon" width="200px" height="200.00px" viewBox="0 0 1024 1024" version="1.1" xmlns="http://www.w3.org/2000/svg"><path fill="#333333" d="M910 199H114c-9.942 0-18 8.058-18 18s8.058 18 18 18h80V872c0 29.776 24.224 54 54 54h532c29.776 0 54-24.224 54-54V235h76c9.942 0 18-8.058 18-18s-8.058-18-18-18zM798 872c0 9.926-8.074 18-18 18H248c-9.924 0-18-8.074-18-18V235h568V872zM382 168a18 18 0 0 0 18-18c0-9.924 8.076-18 18-18h188c9.926 0 18 8.076 18 18 0 9.942 8.058 18 18 18s18-8.058 18-18c0-29.776-24.224-54-54-54h-188c-29.776 0-54 24.224-54 54a18 18 0 0 0 18 18z"  /><path fill="#333333" d="M382 761a18 18 0 0 0 18-18v-364c0-9.942-8.058-18-18-18s-18 8.058-18 18v364a18 18 0 0 0 18 18zM642 761a18 18 0 0 0 18-18v-364c0-9.942-8.058-18-18-18s-18 8.058-18 18v364a18 18 0 0 0 18 18z"  /></svg>