<?xml version="1.0" standalone="no"?><!DOCTYPE svg PUBLIC "-//W3C//DTD SVG 1.1//EN" "http://www.w3.org/Graphics/SVG/1.1/DTD/svg11.dtd"><svg t="1507208363590" class="icon" style="" viewBox="0 0 1024 1024" version="1.1" xmlns="http://www.w3.org/2000/svg" p-id="9474" xmlns:xlink="http://www.w3.org/1999/xlink" width="200" height="200"><defs><style type="text/css"></style></defs><path d="M963.199718 922.496063c8.959994 10.495993 13.439992 22.143986 13.439992 34.879979a50.047969 50.047969 0 0 1-15.167991 36.607977 49.535969 49.535969 0 0 1-36.415977 15.23199 54.207966 54.207966 0 0 1-17.343989-2.815998 46.207971 46.207971 0 0 1-15.167991-8.447995l-5.567996-4.479997-276.927827-280.447825a375.679765 375.679765 0 0 1-248.319845 69.823957 270.719831 270.719831 0 0 1-25.215984-3.391998 359.487775 359.487775 0 0 1-159.231901-58.559964A378.239764 378.239764 0 0 1 51.840288 586.880273a366.655771 366.655771 0 0 1-35.327978-82.239948 404.479747 404.479747 0 0 1-15.74399-88.959945c-1.855999-30.143981-0.128-60.415962 5.119996-90.111943 7.423995-48.06397 24.191985-94.207941 49.27997-135.743916 24.959984-41.791974 57.599964-78.335951 96.447939-107.519932A372.799767 372.799767 0 0 1 261.952156 21.376627 375.423765 375.423765 0 0 1 386.944078 0.00064c17.919989 0 35.135978 1.151999 51.583968 3.391998a384.63976 384.63976 0 0 1 126.719921 40.511975c39.615975 20.479987 75.327953 47.99997 105.343934 81.151949a370.367769 370.367769 0 0 1 80.12795 130.623918c18.303989 50.367969 26.367984 101.375937 24.127985 153.215904-3.007998 86.399946-32.51198 164.031897-88.575945 233.151855l278.015826 280.447824h-1.087999zM716.543872 407.680385a317.503802 317.503802 0 0 0-22.399986-135.167915 328.063795 328.063795 0 0 0-96.959939-136.831915 331.519793 331.519793 0 0 0-71.167956-45.631971 324.095797 324.095797 0 0 0-174.91189-28.159983 51.327968 51.327968 0 0 0-10.047994 1.152l-6.783996 1.087999a317.119802 317.119802 0 0 0-132.863917 53.503966 317.951801 317.951801 0 0 0-96.959939 105.343935 320.7678 320.7678 0 0 0-45.439972 153.151904c-2.559998 56.319965 7.679995 108.543932 30.911981 156.543902 19.327988 43.519973 48.25597 82.047949 84.607947 112.63993a323.455798 323.455798 0 0 0 123.839923 66.495958c47.87197 13.503992 95.99994 16.12799 144.639909 7.871995 25.471984-4.479997 50.303969-12.095992 73.983954-22.527986A338.559788 338.559788 0 0 0 639.74392 605.440262c16.831989-19.903988 30.847981-41.535974 42.047974-64.76796a324.863797 324.863797 0 0 0 34.751978-132.927917z" p-id="9475" fill="#ffffff"></path></svg>