<?xml version="1.0" standalone="no"?><!DOCTYPE svg PUBLIC "-//W3C//DTD SVG 1.1//EN" "http://www.w3.org/Graphics/SVG/1.1/DTD/svg11.dtd"><svg t="1507208307043" class="icon" style="" viewBox="0 0 1024 1024" version="1.1" xmlns="http://www.w3.org/2000/svg" p-id="8764" xmlns:xlink="http://www.w3.org/1999/xlink" width="200" height="200"><defs><style type="text/css"></style></defs><path d="M292.571429 234.057143h658.285714c14.628571 0 29.257143-14.628571 29.257143-29.257143s-14.628571-29.257143-29.257143-29.257143H292.571429c-14.628571 0-29.257143 14.628571-29.257143 29.257143-7.314286 14.628571 7.314286 29.257143 29.257143 29.257143z m658.285714 241.371428H292.571429c-14.628571 0-29.257143 14.628571-29.257143 29.257143s14.628571 29.257143 29.257143 29.257143h658.285714c14.628571 0 29.257143-14.628571 29.257143-29.257143 7.314286-14.628571-7.314286-29.257143-29.257143-29.257143z m0 307.2H292.571429c-14.628571 0-29.257143 14.628571-29.257143 29.257143s14.628571 29.257143 29.257143 29.257143h658.285714c14.628571 0 29.257143-14.628571 29.257143-29.257143 7.314286-14.628571-7.314286-29.257143-29.257143-29.257143zM80.457143 234.057143h80.457143c14.628571 0 29.257143-14.628571 29.257143-29.257143s-14.628571-29.257143-29.257143-29.257143H80.457143c-14.628571 0-29.257143 14.628571-29.257143 29.257143-7.314286 14.628571 7.314286 29.257143 29.257143 29.257143z m73.142857 241.371428h-73.142857c-14.628571 0-29.257143 14.628571-29.257143 29.257143s14.628571 29.257143 29.257143 29.257143h80.457143c14.628571 0 29.257143-14.628571 29.257143-29.257143s-14.628571-29.257143-36.571429-29.257143z m0 307.2h-73.142857c-14.628571 0-29.257143 14.628571-29.257143 29.257143s14.628571 29.257143 29.257143 29.257143h80.457143c14.628571 0 29.257143-14.628571 29.257143-29.257143s-14.628571-29.257143-36.571429-29.257143z" p-id="8765" fill="#ffffff"></path></svg>