<?xml version="1.0" standalone="no"?><!DOCTYPE svg PUBLIC "-//W3C//DTD SVG 1.1//EN" "http://www.w3.org/Graphics/SVG/1.1/DTD/svg11.dtd"><svg t="1510629274934" class="icon" style="" viewBox="0 0 1024 1024" version="1.1" xmlns="http://www.w3.org/2000/svg" p-id="783" xmlns:xlink="http://www.w3.org/1999/xlink" width="200" height="200"><defs><style type="text/css"></style></defs><path d="M 557.855 278.562 c 0 3.837 -3.112 6.947 -6.947 6.947 h -77.813 c -3.838 0 -6.947 -3.111 -6.947 -6.947 v -77.813 c 0 -3.837 3.111 -6.947 6.947 -6.947 h 77.813 c 3.836 0 6.947 3.111 6.947 6.947 v 77.813 Z" p-id="784"></path><path d="M 557.855 550.905 c 0 3.837 -3.112 6.947 -6.947 6.947 h -77.813 c -3.838 0 -6.947 -3.111 -6.947 -6.947 v -77.813 c 0 -3.837 3.111 -6.947 6.947 -6.947 h 77.813 c 3.836 0 6.947 3.111 6.947 6.947 v 77.813 Z" p-id="785"></path><path d="M 557.855 823.251 c 0 3.838 -3.112 6.947 -6.947 6.947 h -77.813 c -3.838 0 -6.947 -3.111 -6.947 -6.947 v -77.813 c 0 -3.838 3.111 -6.947 6.947 -6.947 h 77.813 c 3.836 0 6.947 3.111 6.947 6.947 v 77.813 Z" p-id="786"></path></svg>