<?xml version="1.0" standalone="no"?><!DOCTYPE svg PUBLIC "-//W3C//DTD SVG 1.1//EN" "http://www.w3.org/Graphics/SVG/1.1/DTD/svg11.dtd"><svg class="icon" width="200px" height="200.00px" viewBox="0 0 1024 1024" version="1.1" xmlns="http://www.w3.org/2000/svg"><path fill="#333333" d="M445.979486 762.27359c-146.218907 0-264.361418-114.769701-264.361418-255.927345 0-141.210857 118.180373-255.927345 264.787112-255.927346 31.78178 0 44.807419-30.317432 31.935276-54.739609-5.040796-9.562777-13.981405-19.160347-25.884478-28.854107l-51.618531-42.040405c-13.693856-11.152992-33.836575-9.093081-44.989568 4.600776-11.152992 13.694879-9.093081 33.836575 4.601799 44.989567l22.20877 18.087924C231.639221 221.298733 117.661558 350.644378 117.661558 506.346245c0 176.900636 147.184906 319.883855 328.317928 319.883855 17.661206 0 31.978255-14.317048 31.978255-31.978255s-14.317048-31.978255-31.978255-31.978255zM906.339465 506.346245c0-176.900636-147.183883-319.883855-328.317928-319.883855-17.661206 0-31.978255 14.317048-31.978254 31.978254s14.317048 31.978255 31.978254 31.978255c146.218907 0 264.361418 114.770724 264.361419 255.927346 0 141.167878-118.153767 255.927345-264.512868 255.927345-31.855458 0-42.828349 28.667866-33.579725 52.59067 3.998049 10.341512 11.80279 21.28268 22.279378 32.246361l47.21116 49.403078c12.201879 12.768789 32.443858 13.227229 45.212647 1.02535 12.767766-12.201879 13.227229-32.443858 1.026374-45.212647l-28.929831-30.27343c156.004765-24.741448 275.249374-156.475485 275.249374-315.706727z"  /><path fill="#333333" d="M432.430939 450.883159c8.41463 15.527617 27.82364 21.293936 43.351257 12.878283l7.540728-4.608962v127.462766h-25.558044c-17.661206 0-31.978255 14.317048-31.978255 31.978254s14.317048 31.978255 31.978255 31.978255h108.47024c17.661206 0 31.978255-14.317048 31.978255-31.978255s-14.317048-31.978255-31.978255-31.978254h-18.955686v-181.165768c0-24.234912-25.908015-39.662246-47.215254-28.115281l-54.755982 30.195659c-15.526594 8.416677-21.292913 27.825687-12.877259 43.353303z"  /></svg>