<?xml version="1.0" standalone="no"?><!DOCTYPE svg PUBLIC "-//W3C//DTD SVG 1.1//EN" "http://www.w3.org/Graphics/SVG/1.1/DTD/svg11.dtd"><svg t="1507208280265" class="icon" style="" viewBox="0 0 1024 1024" version="1.1" xmlns="http://www.w3.org/2000/svg" p-id="8015" xmlns:xlink="http://www.w3.org/1999/xlink" width="200" height="200"><defs><style type="text/css"></style></defs><path d="M1024 365.227c0-163.84-133.12-296.96-296.96-296.96-81.92 0-160.427 34.133-215.04 88.746-54.613-54.613-133.12-88.746-215.04-88.746C133.12 68.267 0 201.387 0 365.227 0 440.32 27.307 512 81.92 570.027c0 0 0 3.413 3.413 3.413l3.414 3.413 378.88 361.814c10.24 10.24 27.306 17.066 44.373 17.066s34.133-6.826 47.787-20.48c13.653-10.24 310.613-293.546 378.88-358.4l3.413-3.413c51.2-54.613 81.92-129.707 81.92-208.213zM300.373 218.453c-85.333 0-153.6 68.267-153.6 153.6 0 13.654-10.24 23.894-23.893 23.894s-23.893-10.24-23.893-23.894c0-112.64 88.746-201.386 197.973-201.386 13.653 0 23.893 10.24 23.893 23.893s-10.24 23.893-20.48 23.893z" p-id="8016" fill="#2c2c2c"></path></svg>