<?xml version="1.0" standalone="no"?><!DOCTYPE svg PUBLIC "-//W3C//DTD SVG 1.1//EN" "http://www.w3.org/Graphics/SVG/1.1/DTD/svg11.dtd"><svg t="1507454719353" class="icon" style="" viewBox="0 0 1024 1024" version="1.1" xmlns="http://www.w3.org/2000/svg" p-id="2462" xmlns:xlink="http://www.w3.org/1999/xlink" width="200" height="200"><defs><style type="text/css"></style></defs><path d="M849.063247 464.587154c-17.492396 0-497.80572 0-532.119223 0-34.31248 0-36.246529-25.326828-20.465101-40.932248s245.592464-245.593488 245.592464-245.593488-5.179976-40.932248-40.932248-40.932248c0 0-270.311449 270.712585-306.990836 306.99186-36.680411 36.263925-19.0908 81.864496 40.932248 81.864496 28.492938 0 597.066421 0 613.982696 0C889.676224 525.985526 890.859165 464.587154 849.063247 464.587154z" p-id="2463" fill="#ffffff"></path><path d="M296.478923 628.316146c0 0 198.793602 199.064778 225.12634 225.127364 35.543517 0 40.932248-40.932248 40.932248-40.932248l-225.127364-225.127364C297.902342 587.383898 296.478923 628.316146 296.478923 628.316146z" p-id="2464" fill="#ffffff"></path></svg>