<?xml version="1.0" standalone="no"?><!DOCTYPE svg PUBLIC "-//W3C//DTD SVG 1.1//EN" "http://www.w3.org/Graphics/SVG/1.1/DTD/svg11.dtd"><svg class="icon" width="200px" height="200.00px" viewBox="0 0 1024 1024" version="1.1" xmlns="http://www.w3.org/2000/svg"><path fill="#333333" d="M761.402 214.433h-32.231c-15.204 0-27.488 12.285-27.488 27.488v222.217c-3.162-2.554-6.568-5.108-10.46-7.419l-378.025-234.137c-42.814-26.515-77.843-7.055-77.843 43.422v491.992c0 50.354 34.664 69.207 76.992 41.962l379.849-245.327c3.406-2.188 6.568-4.622 9.487-7.055v233.651c0 15.204 12.285 27.488 27.488 27.488h32.231c15.204 0 27.488-12.285 27.488-27.488v-539.306c0-15.204-12.285-27.488-27.488-27.488v0 0z" /></svg>