<?xml version="1.0" standalone="no"?><!DOCTYPE svg PUBLIC "-//W3C//DTD SVG 1.1//EN" "http://www.w3.org/Graphics/SVG/1.1/DTD/svg11.dtd"><svg class="icon" width="200px" height="200.00px" viewBox="0 0 1024 1024" version="1.1" xmlns="http://www.w3.org/2000/svg"><path fill="#333333" d="M779.213 260.3c-14.643-8.174-31.283-8.174-45.927-0.016L273.852 516.215c-0.051 0.018-0.069 0.069-0.12 0.086V256.34c0-19.029-15.428-34.474-34.474-34.474S204.8 237.295 204.8 256.34v596.651c0 19.03 15.428 34.475 34.458 34.475s34.474-15.429 34.474-34.475V592.998c0.051 0.017 0.069 0.052 0.12 0.086l459.434 255.931c14.644 8.175 31.284 8.175 45.927-0.017 14.643-8.175 22.972-22.084 22.972-38.417V298.718c0-16.333-8.312-30.26-22.972-38.417z" /></svg>