<?xml version="1.0" standalone="no"?><!DOCTYPE svg PUBLIC "-//W3C//DTD SVG 1.1//EN" "http://www.w3.org/Graphics/SVG/1.1/DTD/svg11.dtd"><svg t="1507212635786" class="icon" style="" viewBox="0 0 1024 1024" version="1.1" xmlns="http://www.w3.org/2000/svg" p-id="1829" xmlns:xlink="http://www.w3.org/1999/xlink" width="200" height="200"><defs><style type="text/css"></style></defs><path d="M839.68 844.8c7.68 7.68 10.24 17.92 10.24 25.6 0 10.24-5.12 20.48-12.8 28.16s-15.36 12.8-28.16 12.8c-5.12 0-10.24 0-12.8-2.56-7.68-2.56-12.8-5.12-15.36-10.24l-212.48-212.48c-51.2 35.84-107.52 53.76-171.52 53.76h-20.48c-12.8 0-25.6-2.56-35.84-5.12-35.84-2.56-81.92-23.04-120.32-53.76-23.04-12.8-56.32-48.64-79.36-89.6-20.48-33.28-33.28-71.68-35.84-112.64 2.56 25.6-2.56-2.56-2.56-33.28v-2.56c0-17.92 2.56-35.84 5.12-51.2 7.68-46.08 25.6-89.6 53.76-125.44 12.8-25.6 56.32-64 110.08-89.6-28.16 10.24 0-5.12 33.28-15.36 28.16-10.24 61.44-15.36 94.72-15.36 12.8 0 25.6 0 38.4 2.56 33.28 5.12 66.56 15.36 97.28 30.72 51.2 25.6 89.6 64 117.76 112.64-10.24-23.04 10.24 10.24 25.6 48.64 12.8 38.4 20.48 76.8 17.92 117.76-2.56 66.56-25.6 125.44-66.56 176.64l209.92 209.92z m-186.88-391.68v-12.8c0-33.28-7.68-64-17.92-92.16-12.8-35.84-35.84-69.12-64-94.72 23.04 20.48 7.68 5.12-10.24-7.68-30.72-25.6-69.12-46.08-112.64-53.76 25.6 5.12-10.24-5.12-48.64-5.12-10.24 0-20.48 0-30.72 2.56h-12.8c-46.08 7.68-87.04 25.6-120.32 53.76-25.6 15.36-58.88 58.88-74.24 107.52-2.56-7.68-12.8 30.72-15.36 74.24 0 48.64 7.68 87.04 25.6 125.44 20.48 48.64 56.32 84.48 99.84 110.08 0 5.12 43.52 25.6 94.72 33.28 2.56 2.56 38.4 5.12 76.8 0 33.28-5.12 61.44-17.92 87.04-33.28 7.68-2.56 40.96-25.6 66.56-56.32-10.24 15.36 17.92-17.92 35.84-58.88-25.6 46.08-15.36 30.72-7.68 12.8 15.36-30.72 25.6-69.12 25.6-107.52l2.56 2.56z" fill="#999999" p-id="1830"></path></svg>